<mxfile host="app.diagrams.net" modified="2021-12-04T04:36:27.061Z" agent="5.0 (Windows NT 10.0; Win64; x64) AppleWebKit/537.36 (KHTML, like Gecko) Chrome/96.0.4664.45 Safari/537.36" etag="TUsv-_LmB5WihR4UOJAH" version="15.9.1" type="github">
  <diagram name="Page-1" id="2cc2dc42-3aac-f2a9-1cec-7a8b7cbee084">
    <mxGraphModel dx="2489" dy="762" grid="1" gridSize="10" guides="1" tooltips="1" connect="1" arrows="1" fold="1" page="1" pageScale="1" pageWidth="1100" pageHeight="850" background="none" math="0" shadow="0">
      <root>
        <mxCell id="0" />
        <mxCell id="1" parent="0" />
        <mxCell id="7026571954dc6520-1" value="" style="strokeWidth=1;shadow=0;dashed=0;align=center;html=1;shape=mxgraph.mockup.containers.browserWindow;rSize=0;strokeColor=#666666;mainText=,;recursiveResize=0;rounded=0;labelBackgroundColor=none;fontFamily=Verdana;fontSize=12" parent="1" vertex="1">
          <mxGeometry x="23" y="44" width="1257" height="996" as="geometry" />
        </mxCell>
        <mxCell id="7026571954dc6520-2" value="Page 1" style="strokeWidth=1;shadow=0;dashed=0;align=center;html=1;shape=mxgraph.mockup.containers.anchor;fontSize=17;fontColor=#666666;align=left;" parent="7026571954dc6520-1" vertex="1">
          <mxGeometry x="60" y="12" width="110" height="26" as="geometry" />
        </mxCell>
        <mxCell id="7026571954dc6520-3" value="https://www.default.com" style="strokeWidth=1;shadow=0;dashed=0;align=center;html=1;shape=mxgraph.mockup.containers.anchor;rSize=0;fontSize=17;fontColor=#666666;align=left;" parent="7026571954dc6520-1" vertex="1">
          <mxGeometry x="130" y="60" width="250" height="26" as="geometry" />
        </mxCell>
        <mxCell id="7026571954dc6520-4" value="Sharon Martin" style="text;html=1;points=[];align=left;verticalAlign=top;spacingTop=-4;fontSize=30;fontFamily=Verdana" parent="7026571954dc6520-1" vertex="1">
          <mxGeometry x="30" y="140" width="340" height="50" as="geometry" />
        </mxCell>
        <mxCell id="7026571954dc6520-6" value="Section 1" style="text;html=1;points=[];align=left;verticalAlign=top;spacingTop=-4;fontSize=15;fontFamily=Verdana" parent="7026571954dc6520-1" vertex="1">
          <mxGeometry x="315" y="180" width="170" height="30" as="geometry" />
        </mxCell>
        <mxCell id="7026571954dc6520-7" value="Some default text to fill some space, and&amp;nbsp;&lt;span&gt;something more so there is more text&lt;/span&gt;" style="text;html=1;points=[];align=left;verticalAlign=top;spacingTop=-4;fontSize=12;fontFamily=Verdana;whiteSpace=wrap;" parent="7026571954dc6520-1" vertex="1">
          <mxGeometry x="315" y="210" width="175" height="60" as="geometry" />
        </mxCell>
        <mxCell id="7026571954dc6520-8" value="Section 1" style="text;html=1;points=[];align=left;verticalAlign=top;spacingTop=-4;fontSize=15;fontFamily=Verdana" parent="7026571954dc6520-1" vertex="1">
          <mxGeometry x="790" y="178" width="170" height="30" as="geometry" />
        </mxCell>
        <mxCell id="7026571954dc6520-9" value="Some default text to fill some space, and&amp;nbsp;&lt;span&gt;something more so there is more text&lt;/span&gt;" style="text;html=1;points=[];align=left;verticalAlign=top;spacingTop=-4;fontSize=12;fontFamily=Verdana;whiteSpace=wrap;" parent="7026571954dc6520-1" vertex="1">
          <mxGeometry x="790" y="214" width="180" height="40" as="geometry" />
        </mxCell>
        <mxCell id="7026571954dc6520-10" value="Section 1" style="text;html=1;points=[];align=left;verticalAlign=top;spacingTop=-4;fontSize=15;fontFamily=Verdana" parent="7026571954dc6520-1" vertex="1">
          <mxGeometry x="555" y="179" width="170" height="30" as="geometry" />
        </mxCell>
        <mxCell id="7026571954dc6520-11" value="Some default text to fill some space, and&amp;nbsp;&lt;span&gt;something more so there is more text&lt;/span&gt;" style="text;html=1;points=[];align=left;verticalAlign=top;spacingTop=-4;fontSize=12;fontFamily=Verdana;whiteSpace=wrap;" parent="7026571954dc6520-1" vertex="1">
          <mxGeometry x="555" y="212" width="175" height="40" as="geometry" />
        </mxCell>
        <mxCell id="7026571954dc6520-16" value="Title" style="text;html=1;points=[];align=left;verticalAlign=top;spacingTop=-4;fontSize=15;fontFamily=Verdana" parent="7026571954dc6520-1" vertex="1">
          <mxGeometry x="315" y="140" width="170" height="30" as="geometry" />
        </mxCell>
        <mxCell id="CAKOtPOXRMSO6RPQMRg_-5" value="" style="shape=mxgraph.mockup.containers.marginRect;rectMarginTop=10;strokeColor=#666666;strokeWidth=1;dashed=0;rounded=1;arcSize=5;recursiveResize=0;" vertex="1" parent="7026571954dc6520-1">
          <mxGeometry x="29" y="130" width="230" height="170" as="geometry" />
        </mxCell>
        <mxCell id="CAKOtPOXRMSO6RPQMRg_-6" value="Group Box" style="shape=rect;strokeColor=none;fillColor=#008cff;strokeWidth=1;dashed=0;rounded=1;arcSize=20;fontColor=#ffffff;fontSize=17;spacing=2;spacingTop=-2;align=left;autosize=1;spacingLeft=4;resizeWidth=0;resizeHeight=0;perimeter=none;" vertex="1" parent="CAKOtPOXRMSO6RPQMRg_-5">
          <mxGeometry x="5" y="-5" width="100" height="30" as="geometry" />
        </mxCell>
        <mxCell id="CAKOtPOXRMSO6RPQMRg_-4" value="" style="verticalLabelPosition=bottom;shadow=0;dashed=0;align=center;html=1;verticalAlign=top;strokeWidth=1;shape=mxgraph.mockup.containers.userFemale;strokeColor=#666666;strokeColor2=#008cff;" vertex="1" parent="CAKOtPOXRMSO6RPQMRg_-5">
          <mxGeometry x="64" y="40" width="100" height="100" as="geometry" />
        </mxCell>
        <mxCell id="CAKOtPOXRMSO6RPQMRg_-12" value="Image" style="text;html=1;strokeColor=none;fillColor=none;align=center;verticalAlign=middle;whiteSpace=wrap;rounded=0;" vertex="1" parent="CAKOtPOXRMSO6RPQMRg_-5">
          <mxGeometry x="14" y="140" width="200" height="30" as="geometry" />
        </mxCell>
        <mxCell id="CAKOtPOXRMSO6RPQMRg_-14" value="" style="shape=mxgraph.mockup.containers.marginRect;rectMarginTop=10;strokeColor=#666666;strokeWidth=1;dashed=0;rounded=1;arcSize=5;recursiveResize=0;" vertex="1" parent="7026571954dc6520-1">
          <mxGeometry x="14" y="330" width="1015" height="170" as="geometry" />
        </mxCell>
        <mxCell id="CAKOtPOXRMSO6RPQMRg_-15" value="Section 1" style="shape=rect;strokeColor=none;fillColor=#008cff;strokeWidth=1;dashed=0;rounded=1;arcSize=20;fontColor=#ffffff;fontSize=17;spacing=2;spacingTop=-2;align=left;autosize=1;spacingLeft=4;resizeWidth=0;resizeHeight=0;perimeter=none;" vertex="1" parent="CAKOtPOXRMSO6RPQMRg_-14">
          <mxGeometry x="5" y="-5" width="90" height="30" as="geometry" />
        </mxCell>
        <mxCell id="CAKOtPOXRMSO6RPQMRg_-18" value="Lorem ipsum dolor sit amet, consectetur adipisicing elit, sed do eiusmod tempor incididunt ut labore et dolore magna aliqua. Ut enim ad minim veniam, quis nostrud exercitation ullamco laboris nisi ut aliquip ex ea commodo consequat. Duis aute irure dolor in reprehenderit in voluptate velit esse cillum dolore eu fugiat nulla pariatur. Excepteur sint occaecat cupidatat non proident, sunt in culpa qui officia deserunt mollit anim id est laborum.&#xa;Sed ut perspiciatis unde omnis iste natus error sit voluptatem accusantium doloremque laudantium, totam rem aperiam, eaque ipsa quae ab illo inventore veritatis et quasi architecto beatae vitae dicta sunt explicabo. Nemo enim ipsam voluptatem quia voluptas sit aspernatur aut odit aut fugit, sed quia consequuntur magni dolores eos qui ratione voluptatem sequi nesciunt. Neque porro quisquam est, qui dolorem ipsum quia dolor sit amet, consectetur, adipisci velit, sed quia non numquam eius modi tempora incidunt ut labore et dolore magnam aliquam quaerat voluptatem. Ut enim ad minima veniam, quis nostrum exercitationem ullam corporis suscipit laboriosam, nisi ut aliquid ex ea commodi consequatur? Quis autem vel eum iure reprehenderit qui in ea voluptate velit esse quam nihil molestiae consequatur, vel illum qui dolorem eum fugiat quo voluptas nulla pariatur?" style="text;spacingTop=-5;whiteSpace=wrap;html=1;align=left;fontSize=12;fontFamily=Helvetica;fillColor=none;strokeColor=none;rounded=0;shadow=1;labelBackgroundColor=none;" vertex="1" parent="7026571954dc6520-1">
          <mxGeometry x="24" y="368" width="975" height="140" as="geometry" />
        </mxCell>
        <mxCell id="CAKOtPOXRMSO6RPQMRg_-22" value="" style="labelPosition=right;align=left;strokeWidth=1;shape=mxgraph.mockup.markup.curlyBrace;html=1;shadow=0;dashed=0;strokeColor=#999999;direction=north;rotation=-181;" vertex="1" parent="7026571954dc6520-1">
          <mxGeometry x="970" y="180" width="20" height="100" as="geometry" />
        </mxCell>
        <mxCell id="CAKOtPOXRMSO6RPQMRg_-23" value="" style="shape=mxgraph.mockup.containers.marginRect;rectMarginTop=10;strokeColor=#666666;strokeWidth=1;dashed=0;rounded=1;arcSize=5;recursiveResize=0;" vertex="1" parent="7026571954dc6520-1">
          <mxGeometry x="12" y="506" width="1020" height="375" as="geometry" />
        </mxCell>
        <mxCell id="CAKOtPOXRMSO6RPQMRg_-24" value="Section 1" style="shape=rect;strokeColor=none;fillColor=#008cff;strokeWidth=1;dashed=0;rounded=1;arcSize=20;fontColor=#ffffff;fontSize=17;spacing=2;spacingTop=-2;align=left;autosize=1;spacingLeft=4;resizeWidth=0;resizeHeight=0;perimeter=none;" vertex="1" parent="CAKOtPOXRMSO6RPQMRg_-23">
          <mxGeometry x="5" y="-5" width="90" height="30" as="geometry" />
        </mxCell>
        <mxCell id="CAKOtPOXRMSO6RPQMRg_-25" value="Lorem ipsum dolor sit amet, consectetur adipisicing elit, sed do eiusmod tempor incididunt ut labore et dolore magna aliqua. Ut enim ad minim veniam, quis nostrud exercitation ullamco laboris nisi ut aliquip ex ea commodo consequat. Duis aute irure dolor in reprehenderit in voluptate velit esse cillum dolore eu fugiat nulla pariatur. Excepteur sint occaecat cupidatat non proident, sunt in culpa qui officia deserunt mollit anim id est laborum.&lt;br&gt;" style="text;spacingTop=-5;whiteSpace=wrap;html=1;align=left;fontSize=12;fontFamily=Helvetica;fillColor=none;strokeColor=none;rounded=0;shadow=1;labelBackgroundColor=none;" vertex="1" parent="CAKOtPOXRMSO6RPQMRg_-23">
          <mxGeometry x="12.5" y="34" width="975" height="50" as="geometry" />
        </mxCell>
        <mxCell id="CAKOtPOXRMSO6RPQMRg_-36" value="" style="aspect=fixed;html=1;points=[];align=center;image;fontSize=12;image=img/lib/azure2/general/Image.svg;" vertex="1" parent="CAKOtPOXRMSO6RPQMRg_-23">
          <mxGeometry x="365" y="90" width="252" height="173.25" as="geometry" />
        </mxCell>
        <mxCell id="CAKOtPOXRMSO6RPQMRg_-37" value="" style="aspect=fixed;html=1;points=[];align=center;image;fontSize=12;image=img/lib/azure2/general/Image.svg;" vertex="1" parent="CAKOtPOXRMSO6RPQMRg_-23">
          <mxGeometry x="365" y="276" width="107.64" height="74" as="geometry" />
        </mxCell>
        <mxCell id="CAKOtPOXRMSO6RPQMRg_-39" value="" style="aspect=fixed;html=1;points=[];align=center;image;fontSize=12;image=img/lib/azure2/general/Image.svg;" vertex="1" parent="CAKOtPOXRMSO6RPQMRg_-23">
          <mxGeometry x="505" y="276" width="107.64" height="74" as="geometry" />
        </mxCell>
        <mxCell id="CAKOtPOXRMSO6RPQMRg_-53" value="click on image - go to url" style="strokeWidth=1;shadow=0;dashed=0;align=center;html=1;shape=mxgraph.mockup.text.stickyNote2;fontColor=#666666;mainText=;fontSize=17;whiteSpace=wrap;fillColor=#ffffcc;strokeColor=#F62E00;" vertex="1" parent="CAKOtPOXRMSO6RPQMRg_-23">
          <mxGeometry x="597" y="100" width="83" height="100" as="geometry" />
        </mxCell>
        <mxCell id="CAKOtPOXRMSO6RPQMRg_-56" value="Nav&amp;nbsp;" style="strokeWidth=1;shadow=0;dashed=0;align=center;html=1;shape=mxgraph.mockup.text.stickyNote2;fontColor=#666666;mainText=;fontSize=17;whiteSpace=wrap;fillColor=#ffffcc;strokeColor=#F62E00;" vertex="1" parent="7026571954dc6520-1">
          <mxGeometry x="993" y="212" width="42" height="45" as="geometry" />
        </mxCell>
        <mxCell id="CAKOtPOXRMSO6RPQMRg_-57" value="" style="verticalLabelPosition=bottom;shadow=0;dashed=0;align=center;html=1;verticalAlign=top;strokeWidth=1;shape=mxgraph.mockup.markup.curlyBrace;strokeColor=#999999;rotation=90;" vertex="1" parent="7026571954dc6520-1">
          <mxGeometry x="960" y="232" width="164" height="16" as="geometry" />
        </mxCell>
        <mxCell id="CAKOtPOXRMSO6RPQMRg_-58" value="Header" style="strokeWidth=1;shadow=0;dashed=0;align=center;html=1;shape=mxgraph.mockup.text.stickyNote2;fontColor=#666666;mainText=;fontSize=17;whiteSpace=wrap;fillColor=#ffffcc;strokeColor=#F62E00;" vertex="1" parent="7026571954dc6520-1">
          <mxGeometry x="1057" y="194.5" width="63" height="80" as="geometry" />
        </mxCell>
        <mxCell id="CAKOtPOXRMSO6RPQMRg_-40" value="" style="shape=mxgraph.mockup.containers.marginRect;rectMarginTop=10;strokeColor=#666666;strokeWidth=1;dashed=0;rounded=1;arcSize=5;recursiveResize=0;" vertex="1" parent="7026571954dc6520-1">
          <mxGeometry x="17" y="889" width="1015" height="90" as="geometry" />
        </mxCell>
        <mxCell id="CAKOtPOXRMSO6RPQMRg_-41" value="Section 1" style="shape=rect;strokeColor=none;fillColor=#008cff;strokeWidth=1;dashed=0;rounded=1;arcSize=20;fontColor=#ffffff;fontSize=17;spacing=2;spacingTop=-2;align=left;autosize=1;spacingLeft=4;resizeWidth=0;resizeHeight=0;perimeter=none;" vertex="1" parent="CAKOtPOXRMSO6RPQMRg_-40">
          <mxGeometry x="5" y="-5" width="90" height="30" as="geometry" />
        </mxCell>
        <mxCell id="CAKOtPOXRMSO6RPQMRg_-43" value="Phone Number" style="text;html=1;strokeColor=none;fillColor=none;align=center;verticalAlign=middle;whiteSpace=wrap;rounded=0;" vertex="1" parent="CAKOtPOXRMSO6RPQMRg_-40">
          <mxGeometry x="45" y="40" width="160" height="30" as="geometry" />
        </mxCell>
        <mxCell id="CAKOtPOXRMSO6RPQMRg_-44" value="Email address" style="text;html=1;strokeColor=none;fillColor=none;align=center;verticalAlign=middle;whiteSpace=wrap;rounded=0;" vertex="1" parent="CAKOtPOXRMSO6RPQMRg_-40">
          <mxGeometry x="275" y="40" width="160" height="30" as="geometry" />
        </mxCell>
        <mxCell id="CAKOtPOXRMSO6RPQMRg_-45" value="Linked In Link" style="text;html=1;strokeColor=none;fillColor=none;align=center;verticalAlign=middle;whiteSpace=wrap;rounded=0;" vertex="1" parent="CAKOtPOXRMSO6RPQMRg_-40">
          <mxGeometry x="580" y="40" width="157" height="30" as="geometry" />
        </mxCell>
        <mxCell id="CAKOtPOXRMSO6RPQMRg_-46" value="Git Link" style="text;html=1;strokeColor=none;fillColor=none;align=center;verticalAlign=middle;whiteSpace=wrap;rounded=0;" vertex="1" parent="CAKOtPOXRMSO6RPQMRg_-40">
          <mxGeometry x="805" y="40" width="160" height="30" as="geometry" />
        </mxCell>
        <mxCell id="CAKOtPOXRMSO6RPQMRg_-47" value="" style="fontColor=#0066CC;verticalAlign=top;verticalLabelPosition=bottom;labelPosition=center;align=center;html=1;outlineConnect=0;fillColor=#CCCCCC;strokeColor=#6881B3;gradientColor=none;gradientDirection=north;strokeWidth=2;shape=mxgraph.networks.phone_1;" vertex="1" parent="CAKOtPOXRMSO6RPQMRg_-40">
          <mxGeometry x="5" y="35" width="40" height="35" as="geometry" />
        </mxCell>
        <mxCell id="CAKOtPOXRMSO6RPQMRg_-48" value="" style="outlineConnect=0;dashed=0;verticalLabelPosition=bottom;verticalAlign=top;align=center;html=1;shape=mxgraph.aws3.email;fillColor=#D9A741;gradientColor=none;" vertex="1" parent="CAKOtPOXRMSO6RPQMRg_-40">
          <mxGeometry x="245" y="32" width="45" height="38" as="geometry" />
        </mxCell>
        <mxCell id="CAKOtPOXRMSO6RPQMRg_-49" value="" style="shape=image;html=1;verticalAlign=top;verticalLabelPosition=bottom;labelBackgroundColor=#ffffff;imageAspect=0;aspect=fixed;image=https://cdn4.iconfinder.com/data/icons/social-media-2182/512/linked_in__social__media__social_media__-128.png" vertex="1" parent="CAKOtPOXRMSO6RPQMRg_-40">
          <mxGeometry x="577" y="37.5" width="30" height="30" as="geometry" />
        </mxCell>
        <mxCell id="CAKOtPOXRMSO6RPQMRg_-50" value="" style="shape=image;html=1;verticalAlign=top;verticalLabelPosition=bottom;labelBackgroundColor=#ffffff;imageAspect=0;aspect=fixed;image=https://cdn0.iconfinder.com/data/icons/social-network-9/50/29-128.png" vertex="1" parent="CAKOtPOXRMSO6RPQMRg_-40">
          <mxGeometry x="827" y="40" width="30" height="30" as="geometry" />
        </mxCell>
        <mxCell id="CAKOtPOXRMSO6RPQMRg_-26" value="Create Variables:&lt;br&gt;Section 1&lt;br&gt;= My Career&lt;br&gt;= Samples of Work&lt;br&gt;= Contact Details&lt;br&gt;" style="strokeWidth=1;shadow=0;dashed=0;align=center;html=1;shape=mxgraph.mockup.text.stickyNote2;fontColor=#666666;mainText=;fontSize=17;whiteSpace=wrap;fillColor=#ffffcc;strokeColor=#F62E00;" vertex="1" parent="1">
          <mxGeometry x="-160" y="90" width="200" height="200" as="geometry" />
        </mxCell>
        <mxCell id="CAKOtPOXRMSO6RPQMRg_-51" value="Create Container &lt;br&gt;Variable&lt;br&gt;Background = Colour 2" style="strokeWidth=1;shadow=0;dashed=0;align=center;html=1;shape=mxgraph.mockup.text.stickyNote2;fontColor=#666666;mainText=;fontSize=17;whiteSpace=wrap;fillColor=#ffffcc;strokeColor=#F62E00;" vertex="1" parent="1">
          <mxGeometry x="-163" y="570" width="200" height="200" as="geometry" />
        </mxCell>
        <mxCell id="CAKOtPOXRMSO6RPQMRg_-52" value="Backgound Colour =&lt;br&gt;Primary Colour&lt;br&gt;gradient go top light to &lt;br&gt;down - darker" style="strokeWidth=1;shadow=0;dashed=0;align=center;html=1;shape=mxgraph.mockup.text.stickyNote2;fontColor=#666666;mainText=;fontSize=17;whiteSpace=wrap;fillColor=#ffffcc;strokeColor=#F62E00;" vertex="1" parent="1">
          <mxGeometry x="-170" y="320" width="200" height="200" as="geometry" />
        </mxCell>
      </root>
    </mxGraphModel>
  </diagram>
</mxfile>
